<svg width="93" height="93" viewBox="0 0 93 93" fill="none" xmlns="http://www.w3.org/2000/svg">
<path d="M36.953 0.268778C36.9312 0.377762 36.8876 1.2569 36.8658 2.21597C36.8076 4.34479 36.8876 4.94784 37.338 5.84878C38.2608 7.68698 39.8011 8.96573 44.4148 11.7339C45.4755 12.366 46.3401 12.8964 46.3329 12.911C46.3184 12.9182 46.0205 12.831 45.6644 12.7148C44.5673 12.366 42.9035 11.9301 41.3777 11.5886C39.9682 11.2762 37.1564 10.7531 36.9166 10.7531C36.6841 10.7603 38.5369 12.2643 39.9464 13.2161C40.1934 13.3832 40.3969 13.5285 40.3969 13.5431C40.3969 13.5576 40.0263 13.4922 39.5831 13.3905C38.13 13.0781 36.0738 12.7366 32.7316 12.2498C27.3042 11.4578 25.9601 11.1527 24.4198 10.3535C23.5261 9.88847 22.9376 9.42347 21.6007 8.10839C20.7942 7.3237 20.4164 6.99675 20.4164 7.0912C20.4164 7.28011 20.8741 8.93667 21.1938 9.91753C21.7169 11.5305 22.3418 12.4169 23.5043 13.1871C24.8557 14.088 26.4977 14.6184 29.8254 15.2505C30.6682 15.4031 31.6055 15.5775 31.9179 15.621C32.2303 15.6719 32.4701 15.7228 32.4628 15.7373C32.4483 15.7446 32.0487 15.7882 31.5691 15.839C30.363 15.948 28.6484 16.1732 27.3551 16.3839C25.684 16.66 23.468 17.096 23.468 17.1468C23.468 17.2558 26.0182 17.8153 27.4859 18.026C27.8346 18.0768 28.1034 18.1277 28.0816 18.1495C28.0671 18.1713 27.2897 18.3384 26.3597 18.5273C24.4488 18.9196 23.0684 19.2539 19.5082 20.1984C15.3087 21.31 13.9137 21.5789 12.2789 21.5789C10.9711 21.5789 10.121 21.4045 7.92679 20.6997C7.43273 20.5399 7.01859 20.4236 7.00406 20.4382C6.9532 20.489 8.02851 21.7024 8.75507 22.4217C10.339 23.991 11.2908 24.3761 13.5867 24.3689C15.2578 24.3689 16.4639 24.1872 19.7625 23.4171C22.894 22.6978 23.25 22.6178 23.25 22.6396C23.25 22.6469 22.9376 22.8067 22.5452 22.9884C20.7652 23.8385 18.2876 25.2698 16.0934 26.7229C15.1924 27.3187 14.7565 27.6529 14.8437 27.6675C15.0398 27.7038 16.7255 27.4858 18.2149 27.217C18.9415 27.0935 19.5227 27.0063 19.5082 27.0353C19.4864 27.0571 19.1594 27.2678 18.7671 27.5003C16.9943 28.5539 15.1706 29.8035 11.734 32.3247C9.16195 34.2138 7.52718 35.3109 6.48093 35.8485C4.73718 36.735 4.04695 36.8875 1.41679 36.9747L0.0363235 37.0183L0.87187 37.5051C1.78734 38.0355 3.03703 38.6458 3.58195 38.8275C5.33296 39.4087 7.46906 38.8565 10.448 37.0401C10.913 36.7567 12.2498 35.8849 13.4051 35.1002L15.5121 33.6834L14.6766 34.6207C13.6739 35.7541 12.8311 36.7785 11.9011 37.9992C11.1382 39.0018 9.66328 41.0798 9.66328 41.1525C9.66328 41.2542 11.6177 39.9682 13.2598 38.7766C13.6957 38.4569 14.0081 38.268 13.95 38.3479C13.8919 38.4278 13.4777 38.9946 13.0345 39.6121C11.5305 41.6901 10.6223 43.1287 8.19562 47.2483C4.80257 53.01 4.1196 53.7946 0.995386 55.4948L0.0726517 55.9961L0.34148 56.047C0.857339 56.1269 2.79726 56.0906 3.52382 55.9816C4.74445 55.7927 5.60179 55.2986 6.82968 54.0635C8.02124 52.8646 8.71148 51.8838 12.0537 46.7034C12.7439 45.6353 13.3324 44.7417 13.3687 44.7199C13.3978 44.6981 13.2816 45.0541 13.0999 45.5046C12.446 47.1684 11.7703 49.2536 11.2327 51.2953C10.9784 52.2689 10.5206 54.3541 10.5497 54.3904C10.5933 54.4267 11.5741 53.1044 12.6712 51.5278C13.1798 50.8012 13.6085 50.2054 13.6158 50.2054C13.6303 50.2054 13.5431 50.5251 13.4269 50.9102C12.693 53.3732 12.0464 56.4611 11.4434 60.3773C10.6514 65.4923 10.5352 66.1317 10.1283 67.5703C9.6996 69.1178 9.14015 70.0696 7.68703 71.7625C7.29468 72.213 7.01859 72.5835 7.07671 72.5835C7.25109 72.5835 9.0457 71.9514 9.60515 71.6899C10.7531 71.1595 11.4434 70.4983 12.0827 69.314C12.8674 67.8682 13.3034 66.306 14.3133 61.3582C14.6838 59.5563 14.989 58.0814 14.9962 58.0741C15.0035 58.0596 15.0544 58.946 15.098 60.0358C15.1852 62.0048 15.3014 63.3635 15.5121 64.9546C15.6792 66.1825 15.9262 67.7228 15.9626 67.6865C16.0062 67.6502 16.3694 65.6885 16.6819 63.8357C16.9071 62.4625 17.0016 62.0411 17.0016 62.3463C17.0016 62.6514 17.2559 64.5841 17.4448 65.7539C17.8662 68.3259 18.3748 70.5346 19.4719 74.5453C21.2084 80.9027 21.3101 81.8908 20.5835 85.1385C20.4891 85.5963 20.4164 85.9814 20.4382 85.9959C20.5399 86.0976 22.1602 84.085 22.567 83.3585C22.9158 82.7409 23.0102 82.3921 23.1119 81.4403C23.2718 79.8346 23.0466 78.258 21.9349 73.1648C21.3755 70.6146 20.7652 67.4903 20.816 67.4395C20.8233 67.4249 20.8959 67.5703 20.9613 67.7664C21.5934 69.4811 22.7559 71.9878 23.7586 73.7896C24.427 74.9885 25.575 76.8921 25.6113 76.8557C25.6331 76.8339 25.3134 74.8795 24.9284 72.7289C24.8121 72.0677 24.7249 71.5155 24.7394 71.501C24.754 71.4864 24.8194 71.5954 24.8775 71.7407C24.9356 71.886 25.2408 72.4673 25.5459 73.034C27.217 76.1219 28.583 78.149 32.2957 83.0824C34.984 86.6498 35.7105 87.7469 36.1174 88.8585C36.4153 89.6796 36.6696 90.7476 36.8367 91.9174C36.9166 92.4478 36.9893 92.8837 37.0038 92.8982C37.0329 92.9346 37.5269 91.7503 37.7376 91.1327C38.3916 89.2073 38.2608 87.9867 37.1564 85.7997C36.5461 84.5791 36.0884 83.838 33.7924 80.3941C30.8862 76.0274 30.9879 76.2454 32.4119 77.6332C33.7198 78.9046 35.0857 80.1035 36.4371 81.1642C37.4398 81.9489 38.8348 82.9734 38.9074 82.9734C38.9655 82.9734 38.7476 82.6537 37.1637 80.4304C36.4371 79.4132 35.8195 78.5268 35.7832 78.4687C35.7469 78.4106 36.0593 78.6431 36.4807 78.9846C39.2416 81.2514 42.3876 83.2713 47.3719 85.9886C51.2226 88.0811 52.6322 88.9675 53.5186 89.8539C54.1652 90.4933 55.1316 91.6703 55.6401 92.4332C55.8218 92.7166 55.9889 92.9055 56.0034 92.8619C56.0543 92.7093 55.7855 90.8639 55.6184 90.1882C55.3859 89.2799 55.0298 88.626 54.3759 87.9285C53.3079 86.7806 52.0727 85.8724 48.5198 83.6636C46.0931 82.1524 42.5475 79.8274 42.4676 79.7039C42.4458 79.6675 42.7001 79.762 43.027 79.9146C44.6691 80.6702 46.9287 81.4912 48.934 82.0652C50.0674 82.3849 51.9129 82.8426 52.4941 82.9443L52.7848 82.9952L52.6031 82.8499C52.5014 82.7699 51.5569 82.1088 50.4961 81.3749C48.5126 80.009 48.3164 79.8637 48.5707 79.9509C48.9994 80.1035 50.5251 80.5467 51.4769 80.7937C54.3178 81.5348 56.8826 81.9707 61.9758 82.5738C67.9554 83.2858 68.7837 83.5038 70.9488 84.906C71.2685 85.1095 71.7553 85.4437 72.0314 85.6471C72.3148 85.8506 72.5545 86.0104 72.5691 85.9959C72.6272 85.9378 71.9079 84.3466 71.5446 83.7217C70.9997 82.799 70.3966 82.2178 69.4957 81.76C67.9045 80.9463 66.4514 80.5612 62.0121 79.7765C59.0259 79.2389 57.2241 78.8901 57.1587 78.8392C57.1296 78.8102 57.6382 78.7811 58.2848 78.7739C60.2102 78.7521 62.2737 78.5704 64.4098 78.2507C65.9573 78.011 67.1344 77.793 67.1344 77.7494C67.1344 77.7203 66.6548 77.6259 66.0663 77.5387C65.4705 77.4442 64.3516 77.2699 63.5742 77.1464C62.0484 76.9139 61.8159 76.8557 62.1574 76.8194C65.674 76.4125 68.9508 75.6424 74.6543 73.8914C78.011 72.8596 78.0982 72.8378 79.3769 72.5254C80.8882 72.1549 81.7237 72.0459 82.6465 72.1113C83.453 72.1621 84.5355 72.3147 85.3566 72.4818C85.6472 72.5399 85.9233 72.5835 85.9669 72.569C86.0686 72.5327 84.7826 71.4428 84.1069 70.9924C82.9662 70.2222 82.3776 70.0406 80.9609 70.0406C79.3116 70.0406 77.9674 70.2803 73.7824 71.3266C71.0796 72.0023 67.9191 72.7361 67.8827 72.6998C67.8682 72.6925 68.2315 72.5254 68.6819 72.3292C69.9607 71.7771 72.3584 70.5492 73.7098 69.7499C75.2283 68.8417 77.2844 67.4758 77.1827 67.4467C77.0955 67.4177 76.042 67.5921 73.9132 67.9917C73.0994 68.1442 72.4383 68.2678 72.4383 68.2532C72.4383 68.246 72.8742 67.9844 73.4046 67.672C75.7659 66.2915 78.1563 64.5623 82.0943 61.409C85.6108 58.59 86.3592 58.0378 87.667 57.2676C88.3573 56.8535 88.9458 56.6355 89.9048 56.4248C90.6387 56.265 91.14 56.185 92.4914 56.047L92.9637 55.9961L92.0409 55.5457C89.6869 54.3977 88.5752 54.3032 86.5699 55.0807C85.1095 55.6474 83.6782 56.5483 79.9073 59.2729C78.6794 60.1593 77.655 60.8859 77.6332 60.8859C77.6041 60.8859 77.9093 60.5153 78.3089 60.0649C79.9509 58.2049 82.1742 55.1824 83.4094 53.148L83.591 52.8574L82.8644 53.3587C82.4648 53.6348 81.5639 54.2887 80.8664 54.8118C80.1689 55.335 79.5659 55.7782 79.5368 55.7927C79.5005 55.8 79.8201 55.3132 80.2343 54.7028C81.9054 52.2471 82.8862 50.5396 85.5019 45.5554C87.6888 41.3777 88.597 39.9972 89.7668 39.0309C90.3408 38.5586 91.358 37.8829 92.2298 37.3961L92.9419 36.9965L92.3824 36.9457C91.6994 36.8803 90.2536 36.9602 89.4762 37.1055C88.4444 37.2944 87.6234 37.7739 86.6353 38.7693C85.4873 39.9246 84.6373 41.196 82.1815 45.4101C80.6775 47.9894 80.4305 48.389 80.4305 48.3091C80.4305 48.2873 80.5322 47.9821 80.6557 47.6189C81.4622 45.2648 82.4866 40.8909 82.7845 38.5441L82.8354 38.1808L82.6828 38.3625C82.4067 38.6967 81.2587 40.2806 80.6993 41.1089C80.1471 41.9226 80.0744 41.9807 80.2125 41.4867C80.3505 40.9708 80.7937 38.4932 81.0044 37.0183C81.128 36.1755 81.375 34.1484 81.5566 32.5136C82.1161 27.4931 82.3268 26.2216 82.8717 24.6885C83.2568 23.6132 84.0051 22.5379 85.313 21.172C85.8216 20.6489 86.0032 20.4164 85.9087 20.4164C85.6908 20.4164 83.8162 20.9758 83.2059 21.2228C82.3341 21.5643 81.8109 21.8913 81.3314 22.3926C80.801 22.9375 80.554 23.3008 80.1616 24.0855C79.4351 25.5241 79.05 27.0935 78.4324 31.0532C78.2508 32.2157 78.0909 33.1675 78.0764 33.1821C78.0619 33.1966 78.0255 32.935 78.0037 32.6081C77.8948 31.3293 77.5169 28.8082 77.19 27.1734C76.9139 25.7711 76.478 23.9039 76.4344 23.9039C76.3326 23.9039 75.8095 26.6866 75.6715 27.9508C75.6061 28.4667 75.5262 28.4885 75.4608 28.0089C75.2864 26.8828 74.4799 23.853 73.3465 20.0531C72.2857 16.5292 72.0314 15.592 71.7698 14.3496C71.5591 13.3614 71.5373 13.1362 71.5373 11.9519C71.5373 10.6514 71.5373 10.6441 71.8352 9.51792C72.0023 8.90034 72.2421 8.08659 72.3656 7.70878C72.4891 7.33823 72.5763 7.01854 72.5618 7.00401C72.5182 6.95315 71.3702 7.97761 70.6291 8.72597C70.2586 9.10378 69.8009 9.6487 69.6047 9.93932C68.5802 11.4578 68.4858 13.6375 69.2777 17.1832C69.3794 17.6191 69.7355 19.0432 70.0769 20.3364C70.4184 21.6297 70.6945 22.7268 70.6945 22.7704C70.6945 22.814 70.4911 22.4725 70.2441 22.0148C69.2341 20.1185 67.6284 17.59 66.0809 15.4612C65.3616 14.4731 65.3543 14.4658 65.3325 14.7274C65.3034 15.0398 65.4705 16.3912 65.7103 17.7644C65.812 18.3239 65.8847 18.7889 65.8701 18.7961C65.8556 18.8107 65.7248 18.629 65.5723 18.4038C64.6059 16.9289 63.3853 15.2796 60.9659 12.1699C57.8634 8.18831 56.9843 6.82237 56.4248 5.14401C56.1633 4.36659 56.0834 3.64729 56.0252 1.7437L55.9816 0.036278L55.3931 1.05347C53.8746 3.66909 53.5476 4.69354 53.7584 6.183C54.0199 7.97761 55.0589 9.96839 57.5292 13.3687C57.9506 13.95 58.3284 14.4731 58.372 14.5312C58.4301 14.6184 58.4156 14.6111 58.3066 14.5239C56.5411 13.0781 53.0681 10.6223 51.1282 9.44526L50.8448 9.27815L51.0047 9.59784C51.2735 10.121 51.8548 11.0219 52.5959 12.0609C52.9809 12.5985 53.3224 13.0781 53.3515 13.1289C53.3878 13.1871 53.0826 13.0127 52.683 12.7584C51.3244 11.8792 49.5951 10.8548 47.1539 9.48159C43.71 7.5562 42.2569 6.67706 41.2324 5.9069C39.6485 4.71534 38.9292 3.79261 37.6287 1.28597C37.0692 0.188856 36.9966 0.0798718 36.953 0.268778ZM46.1512 10.4189C48.963 11.8357 50.358 12.5985 52.0727 13.6666C55.1606 15.5775 57.4202 17.3285 59.8251 19.6898C61.3437 21.172 61.3291 21.1792 60.2393 19.4355C59.6508 18.491 58.4519 16.6746 57.8925 15.8899C57.7036 15.621 57.5437 15.3885 57.5437 15.3667C57.5437 15.2941 59.0913 16.6019 60.0504 17.4883C61.053 18.411 62.4698 19.886 63.3926 20.9613C63.8576 21.4989 65.2671 23.3299 65.7684 24.0492C65.9719 24.3325 65.4342 23.17 64.853 22.0439C63.7704 19.9659 62.9421 18.5927 60.6098 15.0035C58.8443 12.2861 57.8489 10.6804 57.9361 10.6804C58.0015 10.6804 61.1475 14.3786 62.2301 15.73C65.4633 19.7697 67.8028 23.6423 69.3068 27.4422C69.5684 28.0961 69.7863 28.6192 69.7936 28.6047C69.8808 28.5175 69.3213 24.3398 68.9072 22.0511C68.8055 21.4553 70.7381 25.2843 71.4865 27.1516C72.4891 29.6582 73.2884 32.47 73.6952 34.9476C73.7751 35.4489 73.7316 33.1167 73.6371 31.9324C73.4264 29.3095 73.0413 26.8174 72.322 23.4316C71.7262 20.6125 71.2758 18.3675 71.2758 18.2439C71.283 18.1132 71.8352 19.6171 72.4964 21.5425C73.8187 25.4151 74.6325 28.641 75.083 31.8234C75.3954 33.9885 75.4462 34.8168 75.4535 37.2145C75.4535 38.4787 75.4753 39.4959 75.4971 39.4668C75.5916 39.3651 76.2891 36.4589 76.5797 34.9694C76.7468 34.1339 76.8994 33.3782 76.9212 33.2765C77.0737 32.688 77.2481 36.8948 77.1609 38.9146C77.0519 41.2905 76.725 43.8698 76.3181 45.4464C76.2237 45.8242 76.5216 45.1413 76.8703 44.175C77.902 41.3486 78.476 39.1471 79.5223 34.0757C80.2125 30.7408 80.3651 30.0578 80.4014 30.1014C80.4886 30.1886 80.0962 35.1874 79.8419 37.2726C79.2244 42.344 77.8657 47.1393 75.9984 50.8593C75.795 51.2589 75.6351 51.6004 75.6351 51.6222C75.6351 51.6876 76.4707 50.7576 77.2118 49.8712C77.8802 49.0647 79.4278 47.0376 79.7402 46.5508C79.8129 46.4418 79.8783 46.3619 79.8928 46.3764C79.9727 46.4564 78.9628 49.2972 78.3816 50.6414C77.1464 53.4822 75.0975 56.9334 73.5717 58.7425C73.4046 58.9387 73.2375 59.1567 73.2012 59.2148C73.0559 59.4618 74.9013 57.6672 75.7732 56.7154C78.1926 54.0635 79.7838 51.9274 82.7918 47.2628C83.4602 46.2239 84.056 45.3229 84.1141 45.2648C84.3466 45.0178 82.2687 49.2318 81.3241 50.9175C78.4615 56.0397 75.112 60.1085 71.1305 63.3053C70.7744 63.5887 72.7943 62.5715 74.073 61.8232C74.6325 61.4962 75.4898 60.9731 75.9839 60.6607C76.9502 60.0431 76.9648 60.0721 76.1074 60.9585C73.4264 63.734 70.8035 65.812 67.8682 67.4903C67.3741 67.7737 66.9527 68.0207 66.9309 68.0425C66.8437 68.1224 68.3768 67.5485 69.4594 67.0835C72.5109 65.7829 75.0539 64.3516 79.9219 61.1765C80.8519 60.5735 81.622 60.0867 81.6293 60.1012C81.6584 60.123 79.515 61.9757 78.4469 62.8476C73.4482 66.9454 67.9699 69.8589 62.7387 71.2103L61.7941 71.4574L62.775 71.4792C63.9666 71.5082 65.8847 71.392 67.5776 71.2031C68.2678 71.1232 68.8418 71.065 68.8563 71.0796C68.9435 71.1667 65.8193 72.4019 64.4098 72.8378C61.2637 73.8114 57.9143 74.3927 55.3641 74.3999C54.3687 74.4072 54.5503 74.5017 55.8 74.6252C57.1078 74.7632 62.0993 74.7632 63.3562 74.6324C65.9646 74.3564 67.9699 74.0439 71.1232 73.4191C72.2203 73.2011 73.1285 73.034 73.143 73.0413C73.1721 73.0776 70.324 74.0003 69.2051 74.32C66.8728 74.9812 64.773 75.4389 62.666 75.7441C60.4282 76.0638 59.7234 76.1074 57.0351 76.1074C54.2887 76.1001 53.4096 76.0347 51.2299 75.6642C50.6487 75.5697 50.1619 75.4898 50.1401 75.4898C50.1183 75.4971 50.4598 75.6424 50.8957 75.824C52.0582 76.3035 54.0417 76.9574 55.5748 77.3789C56.3159 77.5823 56.9262 77.7567 56.9407 77.7712C56.9552 77.7857 56.5992 77.7857 56.1487 77.7639C53.6421 77.6767 51.5351 77.4297 49.4353 76.9792C47.7933 76.6232 46.7761 76.3181 44.3566 75.4607C44.0006 75.3299 45.1994 75.9911 46.4637 76.616C49.9221 78.3234 53.7511 79.5658 59.4691 80.83C60.1521 80.9826 60.7261 81.1279 60.7551 81.157C60.8787 81.2514 56.9988 80.8155 55.2696 80.5321C49.3917 79.5731 44.2259 77.6477 39.9973 74.8432C39.4814 74.5017 38.9583 74.1529 38.8348 74.073C38.6313 73.9422 38.6386 73.9567 38.9001 74.2546C40.2879 75.824 41.6684 77.1682 43.3104 78.5268C43.7826 78.9192 44.1532 79.2389 44.1387 79.2534C44.1023 79.297 42.4748 78.5341 41.3632 77.9601C38.3698 76.398 35.7687 74.5235 33.3347 72.1621C32.0559 70.9197 32.0341 70.9197 32.9714 72.1839C33.9741 73.5208 34.8968 74.5743 36.4371 76.1146C38.8566 78.5341 40.7529 80.0962 44.3566 82.6174C45.2358 83.2349 46.0423 83.7944 46.1367 83.8671C46.6744 84.2449 44.0079 82.8063 42.2859 81.7891C36.6042 78.4106 31.9106 73.9931 28.9608 69.2196C28.7719 68.9144 28.5975 68.6601 28.583 68.6601C28.5466 68.6601 28.9027 69.5828 29.3749 70.6945C29.8617 71.8352 30.8571 73.8332 31.4456 74.8577C31.6491 75.2064 31.8016 75.4898 31.7871 75.4898C31.7435 75.4898 31.1695 74.8649 30.5519 74.1457C28.4449 71.6899 26.4323 68.4857 25.2044 65.6303C25.0301 65.2235 24.8775 64.9038 24.863 64.9183C24.8194 64.9546 25.3425 66.7928 25.6985 67.8609C26.8319 71.2612 28.4522 74.5671 31.2858 79.2534C31.8961 80.2633 32.3684 81.0698 32.332 81.048C32.2303 80.9899 30.6028 78.9046 29.8326 77.8511C25.8148 72.3801 23.2645 66.742 22.2837 61.1039L22.1093 60.123L22.0512 60.8423C21.9422 62.2155 22.073 66.524 22.2691 67.9335C22.2982 68.1733 22.2909 68.166 22.1311 67.8173C22.0366 67.6211 21.7969 66.9817 21.5934 66.4005C20.3583 62.8113 19.7552 59.5272 19.639 55.7273L19.5881 54.0925L19.4573 54.8917C19.1086 57.0642 18.9633 60.2974 19.1013 62.8113C19.2394 65.3688 19.4937 67.4467 20.0967 71.0796C20.2711 72.1476 20.4164 73.0485 20.4091 73.0776C20.3801 73.4627 19.1522 68.9144 18.7162 66.8074C18.1059 63.8067 17.8734 61.7432 17.8226 58.8152C17.7717 55.8217 17.9388 53.6711 18.4184 51.2807C18.5128 50.7939 18.5782 50.3798 18.5709 50.3653C18.5346 50.3289 17.7209 52.3996 17.3648 53.4386C17.1977 53.9182 16.878 54.9789 16.6383 55.8C16.4058 56.621 16.2023 57.3548 16.1733 57.4347C16.1006 57.6963 16.2023 55.2042 16.3186 54.1289C16.4639 52.7048 16.7327 51.0555 17.0452 49.6968C17.3358 48.4399 17.917 46.4491 18.2004 45.7661C18.5637 44.8579 18.3021 45.2939 17.4956 46.9141C15.7809 50.3507 14.6911 53.5331 13.2234 59.3964C12.8892 60.7115 12.5986 61.8159 12.5695 61.845C12.5114 61.9176 12.5259 61.7723 12.7948 59.6144C13.5577 53.3514 14.9163 48.4762 17.1396 44.0442C17.6627 42.9979 18.5055 41.5085 18.9633 40.8328C19.1086 40.6148 19.2539 40.3823 19.283 40.3242C19.312 40.266 18.8398 40.7238 18.2222 41.3414C17.0306 42.5475 16.1515 43.5428 14.88 45.134C14.4441 45.6862 14.0662 46.1367 14.0517 46.1367C13.95 46.1367 15.127 43.4702 15.8318 42.1042C17.1832 39.4886 18.7526 37.1564 20.6053 35.0203C21.034 34.5189 21.3246 34.1629 21.2447 34.221C20.1766 35.0421 18.2948 36.8003 17.0597 38.1227C14.9163 40.4332 13.7393 41.9226 10.7604 46.1003C9.32906 48.1057 8.99484 48.5271 9.31453 47.9531C9.41624 47.7714 9.68507 47.2628 9.91757 46.8269C13.6448 39.7357 17.5029 34.9331 22.7123 30.9007C22.923 30.7335 22.9158 30.7335 22.5089 30.9079C21.5644 31.3075 18.4474 33.0658 16.8199 34.1121L16.384 34.3954L16.7763 33.9377C17.2268 33.4218 18.847 31.8742 19.7988 31.0605C21.39 29.7018 23.0248 28.5248 24.7758 27.4785C26.0618 26.7157 26.1054 26.6793 25.466 26.9191C22.5016 28.0307 19.5736 29.5129 15.4758 31.9905C13.0127 33.48 11.2544 34.5189 11.1164 34.5698C10.9856 34.6207 11.4652 34.2138 13.1508 32.8696C18.8398 28.3068 23.497 25.6258 28.5902 23.9765C29.9998 23.5188 30.1451 23.4607 29.7527 23.5042C29.5929 23.5188 29.0843 23.5551 28.6266 23.5769C27.6166 23.6278 25.6259 23.8457 23.9112 24.0928C23.2209 24.1945 22.6397 24.2599 22.6252 24.2453C22.5816 24.2017 24.7758 23.1628 25.713 22.7777C28.6411 21.5861 31.3294 20.816 34.1121 20.38C35.8195 20.1112 35.8486 20.0894 34.657 20.0676C31.5982 20.0022 28.0017 20.3728 22.8141 21.2955C19.777 21.8404 18.1568 22.102 18.1205 22.0729C18.0914 22.0439 21.8332 20.8596 23.1047 20.4963C25.4152 19.8351 28.0162 19.2539 30.0797 18.9342C32.6009 18.5491 33.4001 18.491 36.4952 18.491C38.9946 18.491 39.3506 18.4764 39.0745 18.3965C38.1663 18.1204 35.5216 17.4883 34.1194 17.2122C32.1649 16.8199 32.2085 16.8053 35.4562 16.74C38.5805 16.6746 40.9709 16.8562 43.4775 17.3357C43.9861 17.4375 44.422 17.5028 44.4438 17.4883C44.4584 17.4665 44.1823 17.3503 43.8335 17.2195C40.8037 16.1151 38.7403 15.5339 33.5309 14.3496C31.1405 13.8046 29.1134 13.2888 29.1642 13.2379C29.2005 13.2089 32.7098 13.5358 34.548 13.7392C40.3533 14.3859 45.2721 15.6501 49.428 17.5682C49.7768 17.7281 50.0601 17.8516 50.0601 17.8371C50.0601 17.7281 46.9577 15.3377 45.0396 13.9645C44.5528 13.6085 44.5237 13.5794 44.7562 13.623C45.2648 13.732 47.7279 14.5603 48.8976 15.018C50.3144 15.5775 52.6976 16.7182 53.9763 17.4592C54.4849 17.7426 55.4004 18.3166 56.018 18.7307C57.3112 19.5953 57.2531 19.4936 55.5457 17.9606C53.3951 16.0352 51.6441 14.7201 47.4736 11.9083C44.1605 9.67776 43.3176 9.08198 43.4775 9.08198C43.4993 9.08198 44.6981 9.68503 46.1512 10.4189Z" fill="#FFA870"/>
</svg>
