<svg width="32" height="32" viewBox="0 0 32 32" fill="none" xmlns="http://www.w3.org/2000/svg">
<path d="M12.715 0.092549C12.7075 0.130049 12.6925 0.432549 12.685 0.762549C12.665 1.49505 12.6925 1.70255 12.8475 2.01255C13.165 2.64505 13.695 3.08505 15.2825 4.03755C15.6475 4.25505 15.945 4.43755 15.9425 4.44255C15.9375 4.44505 15.835 4.41505 15.7125 4.37505C15.335 4.25505 14.7625 4.10505 14.2375 3.98755C13.7525 3.88005 12.785 3.70005 12.7025 3.70005C12.6225 3.70255 13.26 4.22005 13.745 4.54755C13.83 4.60505 13.9 4.65505 13.9 4.66005C13.9 4.66505 13.7725 4.64255 13.62 4.60755C13.12 4.50005 12.4125 4.38255 11.2625 4.21505C9.39498 3.94255 8.93248 3.83755 8.40248 3.56255C8.09498 3.40255 7.89248 3.24255 7.43248 2.79005C7.15498 2.52005 7.02498 2.40755 7.02498 2.44005C7.02498 2.50505 7.18248 3.07505 7.29248 3.41255C7.47248 3.96755 7.68748 4.27255 8.08748 4.53755C8.55248 4.84755 9.11748 5.03005 10.2625 5.24755C10.5525 5.30005 10.875 5.36005 10.9825 5.37505C11.09 5.39255 11.1725 5.41005 11.17 5.41505C11.165 5.41755 11.0275 5.43255 10.8625 5.45005C10.4475 5.48755 9.85748 5.56505 9.41248 5.63755C8.83748 5.73255 8.07498 5.88255 8.07498 5.90005C8.07498 5.93755 8.95248 6.13005 9.45748 6.20255C9.57748 6.22005 9.66998 6.23755 9.66248 6.24505C9.65748 6.25255 9.38998 6.31005 9.06998 6.37505C8.41248 6.51005 7.93748 6.62505 6.71248 6.95005C5.26748 7.33255 4.78748 7.42505 4.22498 7.42505C3.77498 7.42505 3.48248 7.36505 2.72748 7.12255C2.55748 7.06755 2.41498 7.02755 2.40998 7.03255C2.39248 7.05005 2.76248 7.46755 3.01248 7.71505C3.55748 8.25505 3.88498 8.38755 4.67498 8.38505C5.24998 8.38505 5.66498 8.32255 6.79998 8.05755C7.87748 7.81005 7.99998 7.78255 7.99998 7.79005C7.99998 7.79255 7.89248 7.84755 7.75748 7.91005C7.14498 8.20255 6.29248 8.69505 5.53748 9.19505C5.22748 9.40005 5.07748 9.51505 5.10748 9.52005C5.17498 9.53255 5.75498 9.45755 6.26748 9.36505C6.51748 9.32255 6.71748 9.29255 6.71248 9.30255C6.70498 9.31005 6.59248 9.38255 6.45748 9.46255C5.84748 9.82505 5.21998 10.255 4.03748 11.1225C3.15248 11.7725 2.58998 12.15 2.22998 12.335C1.62998 12.64 1.39248 12.6925 0.487482 12.7225L0.0124817 12.7375L0.299982 12.905C0.614982 13.0875 1.04498 13.2975 1.23248 13.36C1.83498 13.56 2.56998 13.37 3.59498 12.745C3.75498 12.6475 4.21498 12.3475 4.61248 12.0775L5.33748 11.59L5.04998 11.9125C4.70498 12.3025 4.41498 12.655 4.09498 13.075C3.83248 13.42 3.32498 14.1351 3.32498 14.1601C3.32498 14.1951 3.99748 13.7525 4.56248 13.3425C4.71248 13.2325 4.81998 13.1675 4.79998 13.195C4.77998 13.2225 4.63748 13.4175 4.48498 13.63C3.96748 14.3451 3.65498 14.8401 2.81998 16.2576C1.65248 18.2401 1.41748 18.5101 0.342482 19.0951L0.0249817 19.2676L0.117482 19.2851C0.294982 19.3126 0.962482 19.3001 1.21248 19.2626C1.63248 19.1976 1.92748 19.0276 2.34998 18.6026C2.75998 18.1901 2.99748 17.8526 4.14748 16.0701C4.38498 15.7026 4.58748 15.3951 4.59998 15.3876C4.60998 15.3801 4.56998 15.5026 4.50748 15.6576C4.28248 16.2301 4.04998 16.9476 3.86498 17.6501C3.77748 17.9851 3.61998 18.7026 3.62998 18.7151C3.64498 18.7276 3.98248 18.2726 4.35998 17.7301C4.53498 17.4801 4.68248 17.2751 4.68498 17.2751C4.68998 17.2751 4.65998 17.3851 4.61998 17.5176C4.36748 18.3651 4.14498 19.4276 3.93748 20.7751C3.66498 22.5351 3.62498 22.7551 3.48498 23.2501C3.33748 23.7826 3.14498 24.1101 2.64498 24.6926C2.50998 24.8476 2.41498 24.9751 2.43498 24.9751C2.49498 24.9751 3.11248 24.7576 3.30498 24.6676C3.69998 24.4851 3.93748 24.2576 4.15748 23.8501C4.42748 23.3526 4.57748 22.8151 4.92498 21.1126C5.05248 20.4926 5.15748 19.9851 5.15998 19.9826C5.16248 19.9776 5.17998 20.2826 5.19498 20.6576C5.22498 21.3351 5.26498 21.8025 5.33748 22.35C5.39498 22.7726 5.47998 23.3026 5.49248 23.2901C5.50748 23.2776 5.63248 22.6025 5.73998 21.965C5.81748 21.4925 5.84998 21.3476 5.84998 21.4526C5.84998 21.5576 5.93748 22.2225 6.00248 22.625C6.14748 23.5101 6.32248 24.2701 6.69998 25.6501C7.29748 27.8376 7.33248 28.1776 7.08248 29.2951C7.04998 29.4526 7.02498 29.5851 7.03248 29.5901C7.06748 29.6251 7.62498 28.9326 7.76498 28.6826C7.88498 28.4701 7.91748 28.3501 7.95248 28.0226C8.00748 27.4701 7.92998 26.9276 7.54748 25.1751C7.35498 24.2976 7.14498 23.2226 7.16248 23.2051C7.16498 23.2001 7.18998 23.2501 7.21248 23.3176C7.42998 23.9076 7.82998 24.7701 8.17498 25.3901C8.40498 25.8026 8.79998 26.4576 8.81248 26.4451C8.81998 26.4376 8.70998 25.7651 8.57748 25.0251C8.53748 24.7976 8.50748 24.6076 8.51248 24.6026C8.51748 24.5976 8.53998 24.6351 8.55998 24.6851C8.57998 24.7351 8.68498 24.9351 8.78998 25.1301C9.36498 26.1926 9.83498 26.8901 11.1125 28.5876C12.0375 29.8151 12.2875 30.1926 12.4275 30.5751C12.53 30.8576 12.6175 31.2251 12.675 31.6276C12.7025 31.8101 12.7275 31.9601 12.7325 31.9651C12.7425 31.9776 12.9125 31.5701 12.985 31.3576C13.21 30.6951 13.165 30.2751 12.785 29.5226C12.575 29.1026 12.4175 28.8476 11.6275 27.6626C10.6275 26.1601 10.6625 26.2351 11.1525 26.7126C11.6025 27.1501 12.0725 27.5626 12.5375 27.9276C12.8825 28.1976 13.3625 28.5501 13.3875 28.5501C13.4075 28.5501 13.3325 28.4401 12.7875 27.6751C12.5375 27.3251 12.325 27.0201 12.3125 27.0001C12.3 26.9801 12.4075 27.0601 12.5525 27.1776C13.5025 27.9576 14.585 28.6526 16.3 29.5876C17.625 30.3076 18.11 30.6126 18.415 30.9176C18.6375 31.1376 18.97 31.5426 19.145 31.8051C19.2075 31.9026 19.265 31.9676 19.27 31.9526C19.2875 31.9001 19.195 31.2651 19.1375 31.0326C19.0575 30.7201 18.935 30.4951 18.71 30.2551C18.3425 29.8601 17.9175 29.5476 16.695 28.7876C15.86 28.2676 14.64 27.4676 14.6125 27.4251C14.605 27.4126 14.6925 27.4451 14.805 27.4976C15.37 27.7576 16.1475 28.0401 16.8375 28.2376C17.2275 28.3476 17.8625 28.5051 18.0625 28.5401L18.1625 28.5576L18.1 28.5076C18.065 28.4801 17.74 28.2526 17.375 28.0001C16.6925 27.5301 16.625 27.4801 16.7125 27.5101C16.86 27.5626 17.385 27.7151 17.7125 27.8001C18.69 28.0551 19.5725 28.2051 21.325 28.4126C23.3825 28.6576 23.6675 28.7326 24.4125 29.2151C24.5225 29.2851 24.69 29.4001 24.785 29.4701C24.8825 29.5401 24.965 29.5951 24.97 29.5901C24.99 29.5701 24.7425 29.0226 24.6175 28.8076C24.43 28.4901 24.2225 28.2901 23.9125 28.1326C23.365 27.8526 22.865 27.7201 21.3375 27.4501C20.31 27.2651 19.69 27.1451 19.6675 27.1276C19.6575 27.1176 19.8325 27.1076 20.055 27.1051C20.7175 27.0976 21.4275 27.0351 22.1625 26.9251C22.695 26.8426 23.1 26.7676 23.1 26.7526C23.1 26.7426 22.935 26.7101 22.7325 26.6801C22.5275 26.6476 22.1425 26.5876 21.875 26.5451C21.35 26.4651 21.27 26.4451 21.3875 26.4326C22.5975 26.2926 23.725 26.0276 25.6875 25.4251C26.8425 25.0701 26.8725 25.0626 27.3125 24.9551C27.8325 24.8276 28.12 24.7901 28.4375 24.8126C28.715 24.8301 29.0875 24.8826 29.37 24.9401C29.47 24.9601 29.565 24.9751 29.58 24.9701C29.615 24.9576 29.1725 24.5826 28.94 24.4276C28.5475 24.1626 28.345 24.1001 27.8575 24.1001C27.29 24.1001 26.8275 24.1826 25.3875 24.5426C24.4575 24.7751 23.37 25.0276 23.3575 25.0151C23.3525 25.0126 23.4775 24.9551 23.6325 24.8876C24.0725 24.6976 24.8975 24.2751 25.3625 24.0001C25.885 23.6876 26.5925 23.2176 26.5575 23.2076C26.5275 23.1976 26.165 23.2576 25.4325 23.3951C25.1525 23.4476 24.925 23.4901 24.925 23.4851C24.925 23.4826 25.075 23.3926 25.2575 23.2851C26.07 22.8101 26.8925 22.2151 28.2475 21.1301C29.4575 20.1601 29.715 19.9701 30.165 19.7051C30.4025 19.5626 30.605 19.4876 30.935 19.4151C31.1875 19.3601 31.36 19.3326 31.825 19.2851L31.9875 19.2676L31.67 19.1126C30.86 18.7176 30.4775 18.6851 29.7875 18.9526C29.285 19.1476 28.7925 19.4576 27.495 20.3951C27.0725 20.7001 26.72 20.9501 26.7125 20.9501C26.7025 20.9501 26.8075 20.8226 26.945 20.6676C27.51 20.0276 28.275 18.9876 28.7 18.2876L28.7625 18.1876L28.5125 18.3601C28.375 18.4551 28.065 18.6801 27.825 18.8601C27.585 19.0401 27.3775 19.1926 27.3675 19.1976C27.355 19.2001 27.465 19.0326 27.6075 18.8226C28.1825 17.9776 28.52 17.3901 29.42 15.6751C30.1725 14.2376 30.485 13.7625 30.8875 13.43C31.085 13.2675 31.435 13.035 31.735 12.8675L31.98 12.73L31.7875 12.7125C31.5525 12.69 31.055 12.7175 30.7875 12.7675C30.4325 12.8325 30.15 12.9975 29.81 13.34C29.415 13.7375 29.1225 14.1751 28.2775 15.6251C27.76 16.5126 27.675 16.6501 27.675 16.6226C27.675 16.6151 27.71 16.5101 27.7525 16.3851C28.03 15.5751 28.3825 14.0701 28.485 13.2625L28.5025 13.1375L28.45 13.2C28.355 13.315 27.96 13.86 27.7675 14.1451C27.5775 14.4251 27.5525 14.4451 27.6 14.2751C27.6475 14.0976 27.8 13.245 27.8725 12.7375C27.915 12.4475 28 11.75 28.0625 11.1875C28.255 9.46005 28.3275 9.02255 28.515 8.49505C28.6475 8.12505 28.905 7.75505 29.355 7.28505C29.53 7.10505 29.5925 7.02505 29.56 7.02505C29.485 7.02505 28.84 7.21755 28.63 7.30255C28.33 7.42005 28.15 7.53255 27.985 7.70505C27.8025 7.89255 27.7175 8.01755 27.5825 8.28755C27.3325 8.78255 27.2 9.32255 26.9875 10.685C26.925 11.085 26.87 11.4125 26.865 11.4175C26.86 11.4225 26.8475 11.3325 26.84 11.22C26.8025 10.78 26.6725 9.91255 26.56 9.35005C26.465 8.86755 26.315 8.22505 26.3 8.22505C26.265 8.22505 26.085 9.18255 26.0375 9.61755C26.015 9.79505 25.9875 9.80255 25.965 9.63755C25.905 9.25005 25.6275 8.20755 25.2375 6.90005C24.8725 5.68755 24.785 5.36505 24.695 4.93755C24.6225 4.59755 24.615 4.52005 24.615 4.11255C24.615 3.66505 24.615 3.66255 24.7175 3.27505C24.775 3.06255 24.8575 2.78255 24.9 2.65255C24.9425 2.52505 24.9725 2.41505 24.9675 2.41005C24.9525 2.39255 24.5575 2.74505 24.3025 3.00255C24.175 3.13255 24.0175 3.32005 23.95 3.42005C23.5975 3.94255 23.565 4.69255 23.8375 5.91255C23.8725 6.06255 23.995 6.55255 24.1125 6.99755C24.23 7.44255 24.325 7.82005 24.325 7.83505C24.325 7.85005 24.255 7.73255 24.17 7.57505C23.8225 6.92255 23.27 6.05255 22.7375 5.32005C22.49 4.98005 22.4875 4.97755 22.48 5.06755C22.47 5.17505 22.5275 5.64005 22.61 6.11255C22.645 6.30505 22.67 6.46505 22.665 6.46755C22.66 6.47255 22.615 6.41005 22.5625 6.33255C22.23 5.82505 21.81 5.25755 20.9775 4.18755C19.91 2.81755 19.6075 2.34755 19.415 1.77005C19.325 1.50255 19.2975 1.25505 19.2775 0.600049L19.2625 0.012549L19.06 0.362549C18.5375 1.26255 18.425 1.61505 18.4975 2.12755C18.5875 2.74505 18.945 3.43005 19.795 4.60005C19.94 4.80005 20.07 4.98005 20.085 5.00005C20.105 5.03005 20.1 5.02755 20.0625 4.99755C19.455 4.50005 18.26 3.65505 17.5925 3.25005L17.495 3.19255L17.55 3.30255C17.6425 3.48255 17.8425 3.79255 18.0975 4.15005C18.23 4.33505 18.3475 4.50005 18.3575 4.51755C18.37 4.53755 18.265 4.47755 18.1275 4.39005C17.66 4.08755 17.065 3.73505 16.225 3.26255C15.04 2.60005 14.54 2.29755 14.1875 2.03255C13.6425 1.62255 13.395 1.30505 12.9475 0.442549C12.755 0.065049 12.73 0.027549 12.715 0.092549ZM15.88 3.58505C16.8475 4.07255 17.3275 4.33505 17.9175 4.70255C18.98 5.36005 19.7575 5.96255 20.585 6.77505C21.1075 7.28505 21.1025 7.28755 20.7275 6.68755C20.525 6.36255 20.1125 5.73755 19.92 5.46755C19.855 5.37505 19.8 5.29505 19.8 5.28755C19.8 5.26255 20.3325 5.71255 20.6625 6.01755C21.0075 6.33505 21.495 6.84255 21.8125 7.21255C21.9725 7.39755 22.4575 8.02755 22.63 8.27505C22.7 8.37255 22.515 7.97255 22.315 7.58505C21.9425 6.87005 21.6575 6.39755 20.855 5.16255C20.2475 4.22755 19.905 3.67505 19.935 3.67505C19.9575 3.67505 21.04 4.94755 21.4125 5.41255C22.525 6.80255 23.33 8.13505 23.8475 9.44255C23.9375 9.66755 24.0125 9.84755 24.015 9.84255C24.045 9.81255 23.8525 8.37505 23.71 7.58755C23.675 7.38255 24.34 8.70005 24.5975 9.34255C24.9425 10.205 25.2175 11.1725 25.3575 12.025C25.385 12.1975 25.37 11.395 25.3375 10.9875C25.265 10.085 25.1325 9.22755 24.885 8.06255C24.68 7.09255 24.525 6.32005 24.525 6.27755C24.5275 6.23255 24.7175 6.75005 24.945 7.41255C25.4 8.74505 25.68 9.85505 25.835 10.95C25.9425 11.695 25.96 11.98 25.9625 12.805C25.9625 13.24 25.97 13.59 25.9775 13.58C26.01 13.545 26.25 12.545 26.35 12.0325C26.4075 11.745 26.46 11.485 26.4675 11.45C26.52 11.2475 26.58 12.695 26.55 13.39C26.5125 14.2076 26.4 15.0951 26.26 15.6376C26.2275 15.7676 26.33 15.5326 26.45 15.2001C26.805 14.2276 27.0025 13.47 27.3625 11.725C27.6 10.5775 27.6525 10.3425 27.665 10.3575C27.695 10.3875 27.56 12.1075 27.4725 12.825C27.26 14.5701 26.7925 16.2201 26.15 17.5001C26.08 17.6376 26.025 17.7551 26.025 17.7626C26.025 17.7851 26.3125 17.4651 26.5675 17.1601C26.7975 16.8826 27.33 16.1851 27.4375 16.0176C27.4625 15.9801 27.485 15.9526 27.49 15.9576C27.5175 15.9851 27.17 16.9626 26.97 17.4251C26.545 18.4026 25.84 19.5901 25.315 20.2126C25.2575 20.2801 25.2 20.3551 25.1875 20.3751C25.1375 20.4601 25.7725 19.8426 26.0725 19.5151C26.905 18.6026 27.4525 17.8676 28.4875 16.2626C28.7175 15.9051 28.9225 15.5951 28.9425 15.5751C29.0225 15.4901 28.3075 16.9401 27.9825 17.5201C26.9975 19.2826 25.845 20.6825 24.475 21.7825C24.3525 21.88 25.0475 21.5301 25.4875 21.2726C25.68 21.1601 25.975 20.9801 26.145 20.8726C26.4775 20.6601 26.4825 20.6701 26.1875 20.9751C25.265 21.9301 24.3625 22.645 23.3525 23.2226C23.1825 23.3201 23.0375 23.4051 23.03 23.4126C23 23.4401 23.5275 23.2426 23.9 23.0826C24.95 22.635 25.825 22.1426 27.5 21.0501C27.82 20.8426 28.085 20.6751 28.0875 20.6801C28.0975 20.6876 27.36 21.3251 26.9925 21.6251C25.2725 23.0351 23.3875 24.0376 21.5875 24.5026L21.2625 24.5876L21.6 24.5951C22.01 24.6051 22.67 24.5651 23.2525 24.5001C23.49 24.4726 23.6875 24.4526 23.6925 24.4576C23.7225 24.4876 22.6475 24.9126 22.1625 25.0626C21.08 25.3976 19.9275 25.5976 19.05 25.6001C18.7075 25.6026 18.77 25.6351 19.2 25.6776C19.65 25.7251 21.3675 25.7251 21.8 25.6801C22.6975 25.5851 23.3875 25.4776 24.4725 25.2626C24.85 25.1876 25.1625 25.1301 25.1675 25.1326C25.1775 25.1451 24.1975 25.4626 23.8125 25.5726C23.01 25.8001 22.2875 25.9576 21.5625 26.0626C20.7925 26.1726 20.55 26.1876 19.625 26.1876C18.68 26.1851 18.3775 26.1626 17.6275 26.0351C17.4275 26.0026 17.26 25.9751 17.2525 25.9751C17.245 25.9776 17.3625 26.0276 17.5125 26.0901C17.9125 26.2551 18.595 26.4801 19.1225 26.6251C19.3775 26.6951 19.5875 26.7551 19.5925 26.7601C19.5975 26.7651 19.475 26.7651 19.32 26.7576C18.4575 26.7276 17.7325 26.6426 17.01 26.4876C16.445 26.3651 16.095 26.2601 15.2625 25.9651C15.14 25.9201 15.5525 26.1476 15.9875 26.3626C17.1775 26.9501 18.495 27.3776 20.4625 27.8126C20.6975 27.8651 20.895 27.9151 20.905 27.9251C20.9475 27.9576 19.6125 27.8076 19.0175 27.7101C16.995 27.3801 15.2175 26.7176 13.7625 25.7526C13.585 25.6351 13.405 25.5151 13.3625 25.4876C13.2925 25.4426 13.295 25.4476 13.385 25.5501C13.8625 26.0901 14.3375 26.5526 14.9025 27.0201C15.065 27.1551 15.1925 27.2651 15.1875 27.2701C15.175 27.2851 14.615 27.0226 14.2325 26.8251C13.2025 26.2876 12.3075 25.6426 11.47 24.8301C11.03 24.4026 11.0225 24.4026 11.345 24.8376C11.69 25.2976 12.0075 25.6601 12.5375 26.1901C13.37 27.0226 14.0225 27.5601 15.2625 28.4276C15.565 28.6401 15.8425 28.8326 15.875 28.8576C16.06 28.9876 15.1425 28.4926 14.55 28.1426C12.595 26.9801 10.98 25.4601 9.96498 23.8176C9.89998 23.7126 9.83998 23.6251 9.83498 23.6251C9.82248 23.6251 9.94498 23.9426 10.1075 24.3251C10.275 24.7176 10.6175 25.4051 10.82 25.7576C10.89 25.8776 10.9425 25.9751 10.9375 25.9751C10.9225 25.9751 10.725 25.7601 10.5125 25.5126C9.78748 24.6676 9.09498 23.5651 8.67248 22.5825C8.61248 22.4425 8.55998 22.3325 8.55498 22.3375C8.53998 22.35 8.71998 22.9826 8.84248 23.3501C9.23248 24.5201 9.78998 25.6576 10.765 27.2701C10.975 27.6176 11.1375 27.8951 11.125 27.8876C11.09 27.8676 10.53 27.1501 10.265 26.7876C8.88248 24.9051 8.00498 22.9651 7.66748 21.0251L7.60748 20.6876L7.58748 20.9351C7.54998 21.4076 7.59498 22.8901 7.66248 23.3751C7.67248 23.4576 7.66998 23.4551 7.61498 23.3351C7.58248 23.2676 7.49998 23.0476 7.42998 22.8476C7.00498 21.6125 6.79748 20.4826 6.75748 19.1751L6.73998 18.6126L6.69498 18.8876C6.57498 19.6351 6.52498 20.7476 6.57248 21.6126C6.61998 22.4926 6.70748 23.2076 6.91498 24.4576C6.97498 24.8251 7.02498 25.1351 7.02248 25.1451C7.01248 25.2776 6.58998 23.7126 6.43998 22.9876C6.22998 21.955 6.14998 21.2451 6.13248 20.2376C6.11498 19.2076 6.17248 18.4676 6.33748 17.6451C6.36998 17.4776 6.39248 17.3351 6.38998 17.3301C6.37748 17.3176 6.09748 18.0301 5.97498 18.3876C5.91748 18.5526 5.80748 18.9176 5.72498 19.2001C5.64498 19.4826 5.57498 19.7351 5.56498 19.7626C5.53998 19.8526 5.57498 18.9951 5.61498 18.6251C5.66498 18.1351 5.75748 17.5676 5.86498 17.1001C5.96498 16.6676 6.16498 15.9826 6.26248 15.7476C6.38748 15.4351 6.29748 15.5851 6.01998 16.1426C5.42998 17.3251 5.05498 18.4201 4.54998 20.4376C4.43498 20.8901 4.33498 21.2701 4.32498 21.2801C4.30498 21.3051 4.30998 21.2551 4.40248 20.5126C4.66498 18.3576 5.13248 16.6801 5.89748 15.1551C6.07748 14.7951 6.36748 14.2826 6.52498 14.0501C6.57498 13.975 6.62498 13.895 6.63498 13.875C6.64498 13.855 6.48248 14.0125 6.26998 14.2251C5.85998 14.6401 5.55748 14.9826 5.11998 15.5301C4.96998 15.7201 4.83998 15.8751 4.83498 15.8751C4.79998 15.8751 5.20498 14.9576 5.44748 14.4876C5.91248 13.5875 6.45248 12.785 7.08998 12.05C7.23748 11.8775 7.33748 11.755 7.30998 11.775C6.94248 12.0575 6.29498 12.6625 5.86998 13.1175C5.13248 13.9125 4.72748 14.4251 3.70248 15.8626C3.20998 16.5526 3.09498 16.6976 3.20498 16.5001C3.23998 16.4376 3.33248 16.2626 3.41248 16.1126C4.69498 13.6725 6.02248 12.02 7.81498 10.6325C7.88748 10.575 7.88498 10.575 7.74498 10.635C7.41998 10.7725 6.34748 11.3775 5.78748 11.7375L5.63748 11.835L5.77248 11.6775C5.92748 11.5 6.48498 10.9675 6.81248 10.6875C7.35998 10.22 7.92248 9.81505 8.52498 9.45505C8.96748 9.19255 8.98248 9.18005 8.76248 9.26255C7.74248 9.64505 6.73498 10.155 5.32498 11.0075C4.47748 11.52 3.87248 11.8775 3.82498 11.895C3.77998 11.9125 3.94498 11.7725 4.52498 11.31C6.48248 9.74005 8.08498 8.81755 9.83748 8.25005C10.3225 8.09255 10.3725 8.07255 10.2375 8.08755C10.1825 8.09255 10.0075 8.10505 9.84998 8.11255C9.50248 8.13005 8.81748 8.20505 8.22748 8.29005C7.98998 8.32505 7.78998 8.34755 7.78498 8.34255C7.76998 8.32755 8.52498 7.97005 8.84748 7.83755C9.85498 7.42755 10.78 7.16255 11.7375 7.01255C12.325 6.92005 12.335 6.91255 11.925 6.90505C10.8725 6.88255 9.63498 7.01005 7.84998 7.32755C6.80498 7.51505 6.24748 7.60505 6.23498 7.59505C6.22498 7.58505 7.51248 7.17755 7.94998 7.05255C8.74498 6.82505 9.63998 6.62505 10.35 6.51505C11.2175 6.38255 11.4925 6.36255 12.5575 6.36255C13.4175 6.36255 13.54 6.35755 13.445 6.33005C13.1325 6.23505 12.2225 6.01755 11.74 5.92255C11.0675 5.78755 11.0825 5.78255 12.2 5.76005C13.275 5.73755 14.0975 5.80005 14.96 5.96505C15.135 6.00005 15.285 6.02255 15.2925 6.01755C15.2975 6.01005 15.2025 5.97005 15.0825 5.92505C14.04 5.54505 13.33 5.34505 11.5375 4.93755C10.715 4.75005 10.0175 4.57255 10.035 4.55505C10.0475 4.54505 11.255 4.65755 11.8875 4.72755C13.885 4.95005 15.5775 5.38505 17.0075 6.04505C17.1275 6.10005 17.225 6.14255 17.225 6.13755C17.225 6.10005 16.1575 5.27755 15.4975 4.80505C15.33 4.68255 15.32 4.67255 15.4 4.68755C15.575 4.72505 16.4225 5.01005 16.825 5.16755C17.3125 5.36005 18.1325 5.75255 18.5725 6.00755C18.7475 6.10505 19.0625 6.30255 19.275 6.44505C19.72 6.74255 19.7 6.70755 19.1125 6.18005C18.3725 5.51755 17.77 5.06505 16.335 4.09755C15.195 3.33005 14.905 3.12505 14.96 3.12505C14.9675 3.12505 15.38 3.33255 15.88 3.58505Z" fill="#FFA870"/>
</svg>
