<svg width="185" height="185" viewBox="0 0 185 185" fill="none" xmlns="http://www.w3.org/2000/svg">
<path d="M73.5086 0.534678C73.4652 0.751475 73.3785 2.5003 73.3351 4.40812C73.2195 8.64288 73.3785 9.84249 74.2746 11.6347C76.1101 15.2913 79.1742 17.8351 88.3519 23.3417C90.4621 24.5991 92.182 25.6542 92.1676 25.6831C92.1387 25.6976 91.5461 25.5241 90.8379 25.2929C88.6555 24.5991 85.3457 23.7319 82.3105 23.0526C79.5066 22.4312 73.9133 21.3905 73.4363 21.3905C72.9738 21.405 76.6594 24.3968 79.4633 26.2901C79.9547 26.6226 80.3594 26.9116 80.3594 26.9405C80.3594 26.9694 79.6223 26.8394 78.7406 26.637C75.85 26.0155 71.7598 25.3362 65.1113 24.3679C54.3148 22.7925 51.641 22.1855 48.5769 20.5956C46.7992 19.6706 45.6285 18.7456 42.9691 16.1296C41.3648 14.5687 40.6133 13.9183 40.6133 14.1062C40.6133 14.4819 41.5238 17.7773 42.1598 19.7284C43.2004 22.937 44.4433 24.7003 46.7558 26.2323C49.4441 28.0245 52.7105 29.0796 59.3301 30.337C61.0066 30.6405 62.8711 30.9874 63.4926 31.0741C64.114 31.1753 64.591 31.2765 64.5765 31.3054C64.5476 31.3198 63.7527 31.4066 62.7988 31.5077C60.3996 31.7245 56.9887 32.1726 54.416 32.5917C51.0918 33.1409 46.6836 34.0081 46.6836 34.1093C46.6836 34.3261 51.7566 35.439 54.6762 35.8581C55.3699 35.9593 55.9047 36.0605 55.8613 36.1038C55.8324 36.1472 54.2859 36.4796 52.4359 36.8554C48.6348 37.6359 45.8887 38.3007 38.8066 40.1796C30.4527 42.3909 27.6777 42.9257 24.4258 42.9257C21.8242 42.9257 20.1332 42.5788 15.7683 41.1769C14.7855 40.8589 13.9617 40.6276 13.9328 40.6566C13.8316 40.7577 15.9707 43.1714 17.416 44.6023C20.5668 47.7241 22.4601 48.4901 27.0273 48.4757C30.3515 48.4757 32.7508 48.1144 39.3125 46.5823C45.5418 45.1515 46.25 44.9925 46.25 45.0359C46.25 45.0503 45.6285 45.3683 44.848 45.7296C41.307 47.4206 36.3785 50.2679 32.0137 53.1585C30.2215 54.3437 29.3543 55.0085 29.5277 55.0374C29.918 55.1097 33.2711 54.6761 36.234 54.1413C37.6793 53.8956 38.8355 53.7222 38.8066 53.78C38.7633 53.8234 38.1129 54.2425 37.3324 54.705C33.8058 56.8007 30.1781 59.2866 23.3418 64.3019C18.2254 68.0597 14.9734 70.2421 12.8922 71.3116C9.42342 73.0749 8.05038 73.3784 2.81834 73.5519L0.0722504 73.6386L1.73436 74.6069C3.55545 75.662 6.04139 76.8761 7.12538 77.2374C10.6086 78.3937 14.8578 77.2952 20.7836 73.6819C21.7086 73.1183 24.368 71.3839 26.666 69.823L30.8574 67.0046L29.1953 68.8691C27.2008 71.1237 25.5242 73.1616 23.6742 75.5898C22.1566 77.5843 19.2226 81.7179 19.2226 81.8624C19.2226 82.0648 23.1105 79.5066 26.3769 77.1362C27.2441 76.5003 27.8656 76.1245 27.75 76.2835C27.6344 76.4425 26.8105 77.5698 25.9289 78.7984C22.9371 82.9319 21.1305 85.7937 16.3031 93.9886C9.5535 105.45 8.19491 107.011 1.98006 110.393L0.144516 111.39L0.679282 111.491C1.70545 111.65 5.56444 111.578 7.00975 111.361C9.43788 110.985 11.1433 110.003 13.5859 107.546C15.9562 105.161 17.3293 103.21 23.9777 92.9046C25.3508 90.78 26.5215 89.0023 26.5937 88.9589C26.6515 88.9155 26.4203 89.6237 26.059 90.5198C24.7582 93.8296 23.414 97.9776 22.3445 102.039C21.8387 103.976 20.9281 108.124 20.9859 108.196C21.0726 108.268 23.0238 105.638 25.2062 102.501C26.218 101.056 27.0707 99.871 27.0851 99.871C27.114 99.871 26.9406 100.507 26.7094 101.273C25.2496 106.173 23.9633 112.315 22.7637 120.105C21.1883 130.28 20.957 131.552 20.1476 134.414C19.2949 137.492 18.182 139.386 15.2914 142.753C14.5109 143.65 13.9617 144.387 14.0773 144.387C14.4242 144.387 17.9941 143.129 19.107 142.609C21.3906 141.554 22.7637 140.239 24.0355 137.883C25.5965 135.007 26.4637 131.899 28.4726 122.057C29.2098 118.472 29.8168 115.538 29.8312 115.524C29.8457 115.495 29.9469 117.258 30.0336 119.426C30.207 123.343 30.4383 126.046 30.8574 129.211C31.1898 131.653 31.6812 134.717 31.7535 134.645C31.8402 134.573 32.5629 130.671 33.1844 126.985C33.6324 124.253 33.8203 123.415 33.8203 124.022C33.8203 124.629 34.3262 128.474 34.7019 130.801C35.5402 135.917 36.5519 140.311 38.7344 148.289C42.1887 160.935 42.391 162.901 40.9457 169.362C40.7578 170.272 40.6133 171.038 40.6566 171.067C40.859 171.269 44.082 167.266 44.8914 165.821C45.5851 164.592 45.773 163.898 45.9754 162.005C46.2933 158.811 45.8453 155.675 43.634 145.543C42.5211 140.47 41.307 134.255 41.4082 134.154C41.4226 134.125 41.5672 134.414 41.6973 134.804C42.9547 138.215 45.2672 143.201 47.2617 146.786C48.5914 149.171 50.875 152.957 50.9473 152.885C50.9906 152.842 50.3547 148.954 49.5887 144.676C49.3574 143.36 49.184 142.262 49.2129 142.233C49.2418 142.204 49.3719 142.421 49.4875 142.71C49.6031 142.999 50.2101 144.155 50.8172 145.283C54.1414 151.425 56.8586 155.458 64.2441 165.271C69.5918 172.368 71.0371 174.55 71.8465 176.762C72.439 178.395 72.9449 180.519 73.2773 182.846C73.4363 183.901 73.5808 184.769 73.6098 184.798C73.6676 184.87 74.6504 182.514 75.0695 181.285C76.3703 177.455 76.1101 175.027 73.9133 170.677C72.6992 168.249 71.7887 166.775 67.2215 159.924C61.4402 151.237 61.6426 151.671 64.4754 154.432C67.0769 156.961 69.7941 159.346 72.4824 161.456C74.4769 163.017 77.2519 165.055 77.3965 165.055C77.5121 165.055 77.0785 164.419 73.9277 159.996C72.4824 157.973 71.2539 156.209 71.1816 156.094C71.1094 155.978 71.7308 156.441 72.5691 157.12C78.0613 161.629 84.3195 165.647 94.2344 171.053C101.895 175.215 104.698 176.978 106.462 178.742C107.748 180.014 109.67 182.355 110.682 183.873C111.043 184.436 111.376 184.812 111.405 184.725C111.506 184.422 110.971 180.751 110.639 179.407C110.176 177.6 109.468 176.299 108.167 174.912C106.043 172.628 103.586 170.821 96.518 166.428C91.6906 163.421 84.6375 158.796 84.4785 158.551C84.4351 158.478 84.941 158.666 85.5914 158.97C88.8578 160.473 93.3527 162.106 97.3418 163.248C99.5965 163.884 103.268 164.794 104.424 164.997L105.002 165.098L104.641 164.809C104.438 164.65 102.559 163.335 100.449 161.875C96.5035 159.158 96.1133 158.869 96.6191 159.042C97.4719 159.346 100.507 160.227 102.4 160.719C108.052 162.193 113.154 163.06 123.285 164.26C135.18 165.676 136.828 166.11 141.135 168.899C141.771 169.304 142.739 169.969 143.288 170.373C143.852 170.778 144.329 171.096 144.358 171.067C144.473 170.951 143.043 167.786 142.32 166.543C141.236 164.708 140.036 163.551 138.244 162.641C135.079 161.022 132.188 160.256 123.357 158.695C117.417 157.626 113.833 156.932 113.703 156.831C113.645 156.773 114.657 156.715 115.943 156.701C119.773 156.657 123.878 156.296 128.127 155.66C131.205 155.183 133.547 154.75 133.547 154.663C133.547 154.605 132.593 154.417 131.422 154.244C130.237 154.056 128.011 153.709 126.465 153.463C123.43 153.001 122.967 152.885 123.646 152.813C130.642 152.003 137.16 150.471 148.506 146.988C155.183 144.936 155.357 144.892 157.9 144.271C160.907 143.534 162.569 143.317 164.404 143.447C166.009 143.548 168.162 143.852 169.795 144.184C170.373 144.3 170.923 144.387 171.009 144.358C171.212 144.285 168.654 142.117 167.309 141.221C165.04 139.689 163.87 139.328 161.051 139.328C157.77 139.328 155.096 139.805 146.771 141.886C141.395 143.23 135.108 144.69 135.036 144.618C135.007 144.603 135.729 144.271 136.625 143.881C139.169 142.782 143.939 140.34 146.627 138.75C149.648 136.943 153.738 134.226 153.536 134.168C153.362 134.11 151.266 134.457 147.032 135.252C145.413 135.556 144.098 135.801 144.098 135.773C144.098 135.758 144.965 135.238 146.02 134.616C150.717 131.87 155.472 128.43 163.306 122.158C170.301 116.55 171.79 115.451 174.391 113.919C175.764 113.096 176.935 112.662 178.843 112.243C180.303 111.925 181.3 111.766 183.988 111.491L184.928 111.39L183.092 110.494C178.409 108.21 176.198 108.023 172.209 109.569C169.304 110.696 166.457 112.489 158.955 117.909C156.513 119.672 154.475 121.117 154.432 121.117C154.374 121.117 154.981 120.38 155.776 119.484C159.042 115.784 163.465 109.771 165.922 105.725L166.283 105.146L164.838 106.144C164.043 106.693 162.251 107.994 160.863 109.034C159.476 110.075 158.276 110.957 158.218 110.985C158.146 111 158.782 110.032 159.606 108.817C162.93 103.932 164.881 100.536 170.084 90.621C174.435 82.3105 176.241 79.5644 178.568 77.6421C179.71 76.7026 181.734 75.3585 183.468 74.3901L184.884 73.5952L183.771 73.4941C182.413 73.364 179.537 73.523 177.99 73.812C175.938 74.1878 174.305 75.1417 172.339 77.1218C170.055 79.4198 168.364 81.9491 163.479 90.3319C160.487 95.4628 159.996 96.2577 159.996 96.0987C159.996 96.0554 160.198 95.4484 160.444 94.7257C162.048 90.0429 164.086 81.3421 164.679 76.6737L164.78 75.9511L164.477 76.3124C163.927 76.9773 161.644 80.128 160.531 81.7757C159.432 83.3944 159.288 83.5101 159.562 82.5273C159.837 81.5011 160.719 76.5726 161.138 73.6386C161.384 71.962 161.875 67.9296 162.236 64.6776C163.349 54.6905 163.768 52.1612 164.852 49.1116C165.618 46.9726 167.107 44.8335 169.709 42.1163C170.72 41.0757 171.082 40.6132 170.894 40.6132C170.46 40.6132 166.731 41.7261 165.517 42.2175C163.783 42.8968 162.742 43.5472 161.788 44.5444C160.733 45.6284 160.242 46.3511 159.461 47.912C158.016 50.7737 157.25 53.8956 156.021 61.7726C155.66 64.0851 155.342 65.9784 155.313 66.0073C155.284 66.0362 155.212 65.5159 155.169 64.8655C154.952 62.3218 154.2 57.3066 153.55 54.0546C153.001 51.2651 152.134 47.5507 152.047 47.5507C151.845 47.5507 150.804 53.0862 150.529 55.6011C150.399 56.6273 150.24 56.6706 150.11 55.7167C149.763 53.4765 148.159 47.4495 145.904 39.8905C143.794 32.8808 143.288 31.0163 142.768 28.5448C142.349 26.5792 142.305 26.1312 142.305 23.7753C142.305 21.1882 142.305 21.1737 142.898 18.9335C143.23 17.705 143.707 16.0862 143.953 15.3347C144.199 14.5976 144.372 13.9616 144.343 13.9327C144.257 13.8316 141.973 15.8694 140.499 17.3581C139.762 18.1097 138.851 19.1937 138.461 19.7718C136.423 22.7925 136.235 27.1284 137.811 34.1816C138.013 35.0487 138.721 37.8816 139.4 40.4542C140.08 43.0269 140.629 45.2093 140.629 45.296C140.629 45.3827 140.224 44.7034 139.733 43.7929C137.724 40.0206 134.53 34.9909 131.451 30.7562C130.02 28.7905 130.006 28.7761 129.962 29.2964C129.905 29.9179 130.237 32.6062 130.714 35.3378C130.916 36.4507 131.061 37.3757 131.032 37.3901C131.003 37.4191 130.743 37.0577 130.439 36.6097C128.517 33.6757 126.089 30.3948 121.276 24.2089C115.105 16.2886 113.356 13.5714 112.243 10.2327C111.723 8.68624 111.564 7.25538 111.448 3.46866L111.361 0.0721782L110.191 2.09562C107.17 7.29874 106.52 9.33663 106.939 12.2995C107.459 15.8694 109.526 19.8296 114.44 26.5937C115.278 27.7499 116.03 28.7905 116.116 28.9062C116.232 29.0796 116.203 29.0651 115.986 28.8917C112.474 26.0155 105.566 21.1304 101.707 18.789L101.143 18.4566L101.461 19.0925C101.996 20.1331 103.152 21.9253 104.626 23.9921C105.392 25.0616 106.071 26.0155 106.129 26.1167C106.202 26.2323 105.595 25.8855 104.8 25.3796C102.097 23.6308 98.657 21.5929 93.8008 18.8612C86.95 15.0312 84.0594 13.2823 82.0215 11.7503C78.8707 9.37999 77.4398 7.54444 74.8527 2.55812C73.7398 0.375694 73.5953 0.158897 73.5086 0.534678ZM91.8062 20.7257C97.3996 23.5441 100.175 25.0616 103.586 27.1862C109.728 30.9874 114.223 34.4706 119.007 39.1679C122.028 42.1163 121.999 42.1308 119.831 38.662C118.66 36.7831 116.275 33.1698 115.162 31.6089C114.787 31.0741 114.469 30.6116 114.469 30.5683C114.469 30.4237 117.547 33.0253 119.455 34.7886C121.45 36.6241 124.268 39.5581 126.104 41.6972C127.029 42.7667 129.832 46.4089 130.83 47.8398C131.234 48.4034 130.165 46.0909 129.009 43.8507C126.855 39.7171 125.207 36.9855 120.568 29.8456C117.056 24.4401 115.076 21.246 115.249 21.246C115.379 21.246 121.637 28.6026 123.791 31.2909C130.223 39.3269 134.877 47.0304 137.868 54.5894C138.389 55.8901 138.822 56.9308 138.837 56.9019C139.01 56.7284 137.897 48.4179 137.073 43.8651C136.871 42.68 140.716 50.2968 142.204 54.0112C144.199 58.9976 145.789 64.5909 146.598 69.5194C146.757 70.5167 146.67 65.8773 146.482 63.5214C146.063 58.3038 145.297 53.3464 143.866 46.6112C142.681 41.0034 141.785 36.5374 141.785 36.2917C141.8 36.0316 142.898 39.0234 144.213 42.8534C146.844 50.5569 148.462 56.9741 149.359 63.3046C149.98 67.6116 150.081 69.2593 150.096 74.0288C150.096 76.5437 150.139 78.5671 150.182 78.5093C150.37 78.3069 151.758 72.5257 152.336 69.5628C152.668 67.9007 152.972 66.3976 153.015 66.1952C153.319 65.0245 153.666 73.3929 153.492 77.4109C153.275 82.137 152.625 87.2679 151.816 90.4042C151.628 91.1558 152.22 89.7972 152.914 87.8749C154.966 82.2526 156.108 77.8734 158.189 67.7851C159.562 61.1511 159.866 59.7925 159.938 59.8792C160.112 60.0526 159.331 69.9964 158.825 74.1444C157.597 84.2327 154.894 93.7718 151.18 101.172C150.775 101.967 150.457 102.646 150.457 102.689C150.457 102.819 152.119 100.969 153.593 99.2062C154.923 97.6019 158.002 93.5694 158.623 92.6011C158.768 92.3843 158.898 92.2253 158.927 92.2542C159.086 92.4132 157.077 98.0644 155.92 100.738C153.463 106.389 149.387 113.255 146.352 116.853C146.02 117.244 145.687 117.677 145.615 117.793C145.326 118.284 148.997 114.714 150.732 112.821C155.545 107.546 158.71 103.296 164.693 94.0175C166.023 91.9507 167.208 90.1585 167.324 90.0429C167.786 89.5515 163.653 97.9343 161.774 101.287C156.079 111.477 149.416 119.571 141.496 125.93C140.788 126.494 144.806 124.47 147.35 122.982C148.462 122.331 150.168 121.291 151.151 120.669C153.073 119.441 153.102 119.498 151.396 121.262C146.063 126.783 140.846 130.916 135.007 134.255C134.024 134.819 133.186 135.31 133.142 135.353C132.969 135.512 136.018 134.371 138.172 133.446C144.242 130.859 149.301 128.011 158.984 121.695C160.834 120.496 162.366 119.527 162.381 119.556C162.439 119.6 158.175 123.285 156.05 125.019C146.107 133.171 135.209 138.967 124.803 141.655L122.924 142.146L124.875 142.19C127.245 142.248 131.061 142.016 134.429 141.641C135.802 141.482 136.943 141.366 136.972 141.395C137.146 141.568 130.931 144.025 128.127 144.892C121.869 146.829 115.206 147.985 110.133 148C108.153 148.014 108.514 148.202 111 148.448C113.602 148.723 123.531 148.723 126.031 148.462C131.22 147.913 135.209 147.292 141.482 146.049C143.664 145.615 145.471 145.283 145.5 145.297C145.557 145.369 139.892 147.205 137.666 147.841C133.027 149.156 128.85 150.067 124.658 150.674C120.207 151.31 118.805 151.396 113.457 151.396C107.994 151.382 106.245 151.252 101.909 150.515C100.753 150.327 99.7844 150.168 99.741 150.168C99.6976 150.182 100.377 150.471 101.244 150.833C103.557 151.787 107.502 153.087 110.552 153.926C112.026 154.33 113.24 154.677 113.269 154.706C113.298 154.735 112.59 154.735 111.694 154.692C106.707 154.518 102.516 154.027 98.339 153.131C95.0726 152.423 93.0492 151.816 88.2363 150.11C87.5281 149.85 89.9129 151.165 92.4277 152.408C99.3074 155.805 106.924 158.276 118.299 160.791C119.657 161.094 120.799 161.384 120.857 161.441C121.103 161.629 113.385 160.762 109.945 160.198C98.2523 158.291 87.9762 154.46 79.5644 148.882C78.5383 148.202 77.4976 147.509 77.2519 147.35C76.8473 147.089 76.8617 147.118 77.382 147.711C80.1426 150.833 82.8887 153.507 86.1551 156.209C87.0945 156.99 87.8316 157.626 87.8027 157.655C87.7305 157.741 84.493 156.224 82.2816 155.082C76.3269 151.975 71.1527 148.246 66.3109 143.548C63.7672 141.077 63.7238 141.077 65.5883 143.592C67.5828 146.251 69.4183 148.347 72.4824 151.411C77.2953 156.224 81.0676 159.331 88.2363 164.346C89.9851 165.575 91.5894 166.688 91.7773 166.832C92.8469 167.584 87.5426 164.722 84.1172 162.699C72.8148 155.978 63.4781 147.191 57.6101 137.695C57.2344 137.088 56.8875 136.582 56.8586 136.582C56.7863 136.582 57.4945 138.417 58.434 140.629C59.4023 142.898 61.3824 146.873 62.5531 148.91C62.9578 149.604 63.2613 150.168 63.2324 150.168C63.1457 150.168 62.0039 148.925 60.7754 147.494C56.584 142.609 52.5805 136.235 50.1379 130.555C49.791 129.746 49.4875 129.11 49.4586 129.139C49.3719 129.211 50.4125 132.867 51.1207 134.992C53.3754 141.756 56.5984 148.332 62.2351 157.655C63.4492 159.664 64.3887 161.268 64.3164 161.225C64.114 161.109 60.8765 156.961 59.3445 154.865C51.3519 143.982 46.2789 132.766 44.3277 121.551L43.9808 119.6L43.8652 121.03C43.6484 123.762 43.9086 132.333 44.2988 135.137C44.3566 135.614 44.3422 135.599 44.0242 134.905C43.8363 134.515 43.3594 133.243 42.9547 132.087C40.4976 124.947 39.298 118.414 39.0668 110.855L38.9656 107.603L38.7055 109.193C38.0117 113.515 37.7226 119.946 37.9973 124.947C38.2719 130.035 38.7777 134.168 39.9773 141.395C40.3242 143.519 40.6133 145.312 40.5988 145.369C40.541 146.135 38.0984 137.088 37.2312 132.896C36.0172 126.927 35.5547 122.823 35.4535 116.998C35.3523 111.043 35.6848 106.765 36.6387 102.01C36.8265 101.042 36.9566 100.218 36.9422 100.189C36.8699 100.117 35.2512 104.236 34.543 106.303C34.2105 107.257 33.5746 109.367 33.0976 111C32.6351 112.633 32.2305 114.093 32.1726 114.252C32.0281 114.772 32.2305 109.815 32.4617 107.676C32.7508 104.843 33.2855 101.562 33.907 98.8593C34.4851 96.3589 35.6414 92.3987 36.2051 91.0401C36.9277 89.2335 36.4074 90.1007 34.8031 93.3237C31.3922 100.16 29.2242 106.491 26.3047 118.154C25.6398 120.77 25.0617 122.967 25.0039 123.025C24.8883 123.169 24.9172 122.88 25.4519 118.588C26.9695 106.129 29.6723 96.4312 34.0949 87.6148C35.1355 85.5335 36.8121 82.5706 37.7226 81.2265C38.0117 80.7929 38.3008 80.3304 38.3586 80.2148C38.4164 80.0991 37.4769 81.0097 36.2484 82.2382C33.8781 84.6374 32.1293 86.6175 29.6 89.7827C28.7328 90.8812 27.9812 91.7773 27.9523 91.7773C27.75 91.7773 30.0914 86.473 31.4933 83.7558C34.1816 78.5526 37.3035 73.9132 40.989 69.664C41.8418 68.6667 42.4199 67.9585 42.2609 68.0741C40.1363 69.7073 36.393 73.205 33.9359 75.8355C29.6723 80.4316 27.3308 83.3944 21.4051 91.705C18.5578 95.6941 17.893 96.5323 18.5289 95.3905C18.7312 95.0292 19.266 94.0175 19.7285 93.1503C27.143 79.0441 34.8176 69.4905 45.1805 61.4691C45.5996 61.1366 45.5851 61.1366 44.7758 61.4835C42.8969 62.2784 36.6965 65.7761 33.459 67.8573L32.5918 68.421L33.3723 67.5105C34.2683 66.4843 37.4914 63.4058 39.3848 61.787C42.55 59.0843 45.8019 56.7429 49.2851 54.6616C51.8433 53.1441 51.9301 53.0718 50.6582 53.5487C44.7613 55.7601 38.9367 58.7085 30.7851 63.637C25.8855 66.5999 22.3879 68.6667 22.1133 68.7679C21.8531 68.8691 22.807 68.0597 26.1601 65.3859C37.4769 56.3093 46.7414 50.9761 56.873 47.6952C59.6769 46.7847 59.966 46.6691 59.1855 46.7558C58.8676 46.7847 57.8558 46.8569 56.9453 46.9003C54.9363 47.0015 50.9762 47.4351 47.5652 47.9265C46.1922 48.1288 45.0359 48.2589 45.007 48.23C44.9203 48.1433 49.2851 46.0765 51.1496 45.3105C56.9742 42.9401 62.3219 41.4081 67.8574 40.5409C71.2539 40.0062 71.3117 39.9628 68.9414 39.9194C62.8566 39.7894 55.7023 40.5265 45.3828 42.362C39.3414 43.446 36.1183 43.9663 36.0461 43.9085C35.9883 43.8507 43.4316 41.4948 45.9609 40.7722C50.557 39.4569 55.7312 38.3007 59.8359 37.6648C64.8512 36.8987 66.441 36.7831 72.598 36.7831C77.5699 36.7831 78.2781 36.7542 77.7289 36.5952C75.9223 36.046 70.6613 34.7886 67.8719 34.2394C63.984 33.4589 64.0707 33.43 70.5312 33.2999C76.7461 33.1698 81.5012 33.5312 86.4875 34.4851C87.4992 34.6874 88.3664 34.8175 88.4098 34.7886C88.4387 34.7452 87.8894 34.514 87.1957 34.2538C81.1687 32.0569 77.064 30.9007 66.7012 28.5448C61.9461 27.4609 57.9137 26.4347 58.0148 26.3335C58.0871 26.2757 65.068 26.9261 68.7246 27.3308C80.2726 28.6171 90.0574 31.1319 98.3246 34.9476C99.0183 35.2655 99.582 35.5112 99.582 35.4823C99.582 35.2655 93.4105 30.5105 89.5949 27.7788C88.6265 27.0706 88.5687 27.0128 89.0312 27.0995C90.043 27.3163 94.9426 28.964 97.2695 29.8745C100.088 30.9874 104.829 33.2566 107.372 34.7308C108.384 35.2944 110.205 36.4362 111.434 37.2601C114.006 38.98 113.891 38.7776 110.494 35.728C106.216 31.898 102.733 29.2819 94.4367 23.6886C87.8461 19.2515 86.1695 18.0663 86.4875 18.0663C86.5308 18.0663 88.9156 19.2659 91.8062 20.7257Z" fill="#FFA870"/>
</svg>
