<svg width="42" height="91" viewBox="0 0 42 91" fill="none" xmlns="http://www.w3.org/2000/svg">
<path d="M0.953121 89.6044C1.52532 90.3396 2.3487 90.744 3.27789 90.744C4.65549 90.744 7.03092 90.0102 11.7293 83.6636L34.8715 52.3979C40.6738 44.5594 43.093 37.8132 41.3471 34.3473C40.5857 32.836 39.1071 32.0031 37.1849 32.0031H29.6219L33.5736 12.2503C34.6953 6.63711 34.5241 3.03425 33.0536 1.23762C32.3999 0.440316 31.4755 0 30.4534 0C28.1007 0 25.2511 2.27921 21.7379 6.96802L11.3822 20.7946C8.93186 24.0666 1.10808 35.0841 3.29917 39.46C3.82731 40.5165 4.86591 41.1244 6.14399 41.1244H10.774L1.16174 78.6358C-0.778168 86.2084 0.113554 88.5217 0.953121 89.6044ZM4.31978 79.446L14.4536 39.9C14.5774 39.4126 14.4716 38.8941 14.1617 38.4963C13.8521 38.0985 13.3776 37.8654 12.8737 37.8654L6.16677 37.8573C5.87003 36.5189 7.75628 31.0817 13.9938 22.751L24.3495 8.92441C27.6964 4.45411 29.7604 3.26085 30.4875 3.25906C30.5022 3.26895 31.8049 4.4721 30.3784 11.6095L26.037 33.312C25.9408 33.7913 26.0664 34.2886 26.3745 34.665C26.6842 35.0415 27.1473 35.2618 27.6346 35.2618H37.1849C38.1581 35.2618 38.344 35.6335 38.4354 35.8127C39.1934 37.3159 38.1728 42.4579 32.2518 50.4562L9.1081 81.7252C5.68299 86.3519 3.97268 87.2616 3.45264 87.4409C3.2632 86.9241 2.89153 85.0217 4.31978 79.446Z" fill="#DEBBFF"/>
</svg>
