<svg width="70" height="152" viewBox="0 0 70 152" fill="none" xmlns="http://www.w3.org/2000/svg">
<path d="M1.5922 149.685C2.54806 150.913 3.92353 151.589 5.47575 151.589C7.77703 151.589 11.7452 150.363 19.5939 139.761L58.2532 87.5311C67.946 74.4369 71.9873 63.1673 69.0706 57.3775C67.7988 54.8529 65.3288 53.4614 62.1177 53.4614H49.4836L56.0851 20.4642C57.9588 11.0873 57.6728 5.06874 55.2163 2.06746C54.1243 0.735551 52.5801 0 50.8726 0C46.9425 0 42.1822 3.80744 36.3133 11.6401L19.0141 34.7377C14.9207 40.2035 1.85106 58.6083 5.5113 65.9182C6.39356 67.6832 8.12854 68.6987 10.2636 68.6987H17.9981L1.94069 131.362C-1.29994 144.012 0.189693 147.876 1.5922 149.685ZM7.21624 132.715L24.1449 66.6533C24.3517 65.8391 24.175 64.9729 23.6572 64.3084C23.14 63.644 22.3474 63.2544 21.5057 63.2544L10.3016 63.2409C9.80594 61.0052 12.9569 51.9222 23.3768 38.0058L40.676 14.9083C46.267 7.44064 49.715 5.44729 50.9297 5.44428C50.9542 5.46081 53.1304 7.47068 50.7475 19.3937L43.4951 55.648C43.3344 56.4487 43.5442 57.2794 44.0589 57.9083C44.5761 58.5372 45.3497 58.9052 46.1639 58.9052H62.1177C63.7435 58.9052 64.054 59.5261 64.2067 59.8255C65.473 62.3366 63.7681 70.9264 53.8769 84.2875L15.2152 136.523C9.49349 144.252 6.6364 145.771 5.76766 146.071C5.45121 145.208 4.83033 142.029 7.21624 132.715Z" fill="#DEBBFF"/>
</svg>
