<svg width="98" height="211" viewBox="0 0 98 211" fill="none" xmlns="http://www.w3.org/2000/svg">
<path d="M2.21353 208.097C3.54241 209.805 5.45463 210.744 7.61258 210.744C10.8119 210.744 16.3286 209.04 27.2402 194.3L80.9857 121.689C94.461 103.485 100.079 87.8174 96.0245 79.7683C94.2564 76.2585 90.8224 74.324 86.3583 74.324H68.7939L77.9715 28.4501C80.5763 15.414 80.1789 7.04675 76.7637 2.87425C75.2455 1.02259 73.0987 0 70.725 0C65.2612 0 58.6432 5.29324 50.4841 16.1825L26.4341 48.2935C20.7434 55.8923 2.57342 81.4793 7.662 91.6419C8.88855 94.0957 11.3006 95.5074 14.2688 95.5074H25.0217L2.69802 182.624C-1.80722 200.21 0.263718 205.583 2.21353 208.097ZM10.0323 184.505L33.5671 92.6638C33.8546 91.5319 33.6089 90.3276 32.8891 89.4039C32.17 88.4801 31.0681 87.9385 29.8979 87.9385L14.3217 87.9198C13.6326 84.8116 18.0132 72.1841 32.4993 52.8371L56.5493 20.7261C64.3221 10.3442 69.1155 7.57301 70.8043 7.56884C70.8384 7.59181 73.8637 10.386 70.5509 26.9618L60.4684 77.3639C60.245 78.477 60.5367 79.6318 61.2523 80.5062C61.9713 81.3805 63.0468 81.8921 64.1787 81.8921H86.3583C88.6185 81.8921 89.0501 82.7553 89.2624 83.1716C91.0229 86.6626 88.6527 98.6044 74.9016 117.179L21.1527 189.799C13.1982 200.544 9.22617 202.657 8.01841 203.073C7.57847 201.873 6.71529 197.455 10.0323 184.505Z" fill="#DEBBFF"/>
</svg>
